<?xml version="1.0" encoding="UTF-8"?>
<!DOCTYPE svg PUBLIC "-//W3C//DTD SVG 1.1//EN" "http://www.w3.org/Graphics/SVG/1.1/DTD/svg11.dtd">
<!-- Creator: CorelDRAW -->
<svg xmlns="http://www.w3.org/2000/svg" xml:space="preserve" width="10.9118mm" height="12.8955mm" version="1.1" style="shape-rendering:geometricPrecision; text-rendering:geometricPrecision; image-rendering:optimizeQuality; fill-rule:evenodd; clip-rule:evenodd"
viewBox="0 0 105.16 124.28"
 xmlns:xlink="http://www.w3.org/1999/xlink"
 xmlns:xodm="http://www.corel.com/coreldraw/odm/2003">
 <defs>
  <style type="text/css">
   <![CDATA[
    .fil13 {fill:#112C57}
    .fil15 {fill:#112D54}
    .fil1 {fill:#112E58}
    .fil8 {fill:#112E5A}
    .fil18 {fill:#122A4D}
    .fil16 {fill:#122F57}
    .fil0 {fill:#122F5B}
    .fil11 {fill:#198C4B}
    .fil9 {fill:#1C4576}
    .fil2 {fill:#1C4579}
    .fil5 {fill:#1E487A}
    .fil19 {fill:#288764}
    .fil14 {fill:#6E8095}
    .fil22 {fill:#6F344C}
    .fil21 {fill:#704862}
    .fil17 {fill:#8E3C4F}
    .fil20 {fill:#A93C4A}
    .fil12 {fill:#C42E34}
    .fil10 {fill:#DCE1E5}
    .fil6 {fill:#E1E3E6}
    .fil7 {fill:#E2E5E9}
    .fil3 {fill:#FDFDFD}
    .fil4 {fill:white}
   ]]>
  </style>
 </defs>
 <g id="Livello_x0020_1">
  <metadata id="CorelCorpID_0Corel-Layer"/>
  <g id="_1551414663168">
   <path class="fil0" d="M35.58 94.58c-0.51,0.46 -7.17,3.22 -8.26,3.49 0.02,-3.97 -0.64,-10.06 0.85,-13.39 0.73,-1.62 1.84,-3.18 2.82,-4.18 0.6,-0.62 3.11,-2.73 4.28,-2.87 0.85,-1.1 6.38,-2.05 8.06,-1.76l-0.03 14.63c-0.67,0.61 -6.58,3.77 -7.72,4.08zm16.8 -68c0.92,0.03 7.35,-0.18 7.58,0.13 4.02,-0.21 8.84,1.22 12.05,2.68 3.34,1.52 6.21,4.1 8.02,6.47 4.67,6.09 5.66,14.86 2.04,22.85 -1.22,3.01 -4.14,6.09 -6.76,7.93 -0.93,0.66 -1.94,1.31 -3.02,1.82 -5.51,2.64 -9.87,2.98 -16.42,2.95 -8.12,-0.03 -17.63,-0.33 -24.07,4.89 -1.64,1.33 -3.49,3.28 -4.25,5.45l-0.27 0.24c-0.35,-4.16 -0.11,-9.51 -0.1,-13.79l-0.03 -27.69c0,-1.96 -0.13,-12.8 0.07,-13.79 -0.26,0.87 -0.09,9.43 -0.09,11.12 -0,4.95 0.09,32.75 -0.29,33.73 -0.22,-1.01 0.1,-2.14 -0.41,-3l-0.02 1.15c-0.74,-0.62 -0.97,-0.07 -1.39,0.43 -0.02,0.03 -0.05,0.07 -0.07,0.09l-0.48 0.4c-0.02,-0.03 -0.08,0.05 -0.12,0.06 -0.32,-0.91 0.64,-0.1 -0.14,-0.65 -0.76,0.26 0.22,-0.05 -0.5,0.44 -0.2,0.14 0.02,0.05 -0.28,0.12l-1.53 0.26c0.02,0.53 0.1,0.56 0.19,1.02 -0.83,-0.33 -0.43,0.22 -1.11,-0.14 -1.05,-0.56 0.41,0.11 -0.4,-0.7 -0.23,0.46 0.02,0.09 -0.33,0.22 -0.96,0.36 -0.95,0.51 -0.95,0.51 -0.01,-0.03 -0.06,0.06 -0.09,0.09 -0.04,-0.02 -0.09,-0.06 -0.11,-0.07 -0.02,-0.01 -0.08,-0.05 -0.11,-0.06l-0.38 -0.08c-0.01,0 -0.26,0.06 -0.29,0.06l-0.48 -0.14c-0.59,-0.22 0.03,-0.08 -0.56,-0.03 -0.03,0 -0.15,0.01 -0.2,0l0.2 0.64c0.01,0.03 0.09,0.14 0.12,0.18l-0.62 0.23c-0.38,0.24 0.37,0.15 -0.66,0.33 -1.04,0.18 -0.04,-0.04 -0.69,-0.08 -0.41,-0.03 -0.06,0.11 -0.87,0.43l-1.34 0.46c-0.74,-0.11 -0.12,0.14 -0.5,-0.39 -0.51,0.84 -0.26,0.23 -1.04,0.64l-0.67 0.57c-0.01,-0.57 0.07,-0.81 -0.15,-1.17 0.15,-0.5 0.13,-0.34 0.47,-0.55 -0.54,-0.33 -0.56,-0.03 -0.64,-0.99l-0.19 -4.85c-0.18,-10.51 -0.07,-22.46 -0.01,-33.03 0.08,-14.18 -1.15,-12.99 5.15,-14.74 1.71,-0.48 3.42,-0.9 5.18,-1.33 4.76,-1.16 29.13,-7.64 31.67,-7.88 -0.02,2.95 0.29,14.61 -0.12,16.5zm-26.99 76.24c1.28,-0.67 3.03,-1.17 4.44,-1.8 1.55,-0.69 3.05,-1.28 4.54,-1.96 2.96,-1.35 5.75,-2.73 8.6,-4.24 3.85,-2.03 8.29,-4.99 10.81,-8.37 1.53,-2.06 1.17,-2.26 1.45,-5.01l-0.88 -1.81c0.71,0.49 0.77,0.53 1.09,1.32 0.02,0.02 0.06,0.03 0.06,0.07 0.01,0.04 0.05,0.06 0.06,0.07 0.02,0.03 0.1,0.13 0.12,0.17 1.69,2.99 -0.73,6.73 -2.72,8.72 -2.84,2.85 -3.82,3.67 -7.17,6 -4.98,3.45 -11.06,6.64 -17.02,9.5 -0.15,0.24 0.17,0.23 -0.16,0.2 0.43,0.2 0.96,0.61 1.21,0.8 0.62,0.47 0.63,0.68 1,0.5 1.78,-0.17 14.53,-7.79 17.29,-9.84l3.83 -3.01c1.59,-1.18 4.08,-4.11 5.28,-6.06 1.24,-2.02 1.68,-5.04 0.47,-7.3 -1.12,-2.09 -2.66,-3.2 -4.73,-4.45 -1.35,-0.8 -3.2,-1.58 -4.73,-2.1 -0.94,-0.32 -1.24,-0.31 -1.73,-0.7 5.76,-0.41 11.6,1.21 16.42,3.02 4.71,1.77 8.73,4.81 10.63,8.7 2.53,5.2 0.87,11.03 -1.36,15.64 -1.08,2.23 -2.22,4.27 -3.49,6.18l-4.06 5.9c1.04,-0.19 1.95,-0.97 2.97,-1.48 0.86,-0.44 2.01,-0.95 2.52,-1.7 0.09,-0.22 0.03,-0.13 0.13,-0.28 0.29,-0.43 0.06,-0.11 0.27,-0.33 0.07,-0.12 0.09,-0.22 0.23,-0.37 0.32,-0.36 0.11,-0.15 0.42,-0.34 0.19,-0.83 1.38,-2.46 1.89,-3.37 10.61,-19.08 -2.25,-25.63 -2.82,-26.66l-6.09 -3.1c0.93,0.1 2.45,0.72 3.39,1.12l2.79 1.38c0.24,0.21 0.1,0.09 0.28,0.34 1.46,0.36 4.17,3.04 5.19,4.2 3.58,4.03 4.59,9.69 3.7,15.17 -0.52,3.2 -2.03,6.65 -2.16,7.46l2.71 -2.07c0.95,-0.69 5.29,-5.04 6.18,-6.17 3.27,-4.17 6.22,-8 8.18,-14.16 1.81,-5.7 2.4,-11.16 2.4,-17.51 0.01,-6.61 -0.13,-13.23 -0.08,-19.85 0.05,-6.54 0.04,-13.15 -0.01,-19.68 -0.05,-8.19 0.07,-6.66 -10.44,-9.41 -10.45,-2.74 -21.18,-5.47 -31.63,-8.01 -3.09,-0.75 -5.4,0.36 -8.27,1.07l-31.51 7.97c-7.57,1.86 -6.45,1.38 -6.45,13.38l-0.02 29.86c-0.11,13.24 0.34,22.76 8.4,33.63l5.89 6.61c0.47,0.44 0.91,0.74 1.3,1.21 0.45,0.55 0.75,0.95 1.43,1z"/>
   <path class="fil1" d="M51.47 5.47c2.57,-0.36 7.76,1.4 10.52,2.06 10.02,2.38 21.12,5.34 31.13,7.86 3.85,0.97 5.98,2.68 5.99,7.12l0.02 38.86c0.04,12.51 -1.7,23.56 -9.23,33.23 -0.73,0.94 -2.09,2.79 -2.87,3.47l-2.35 2.48c-1.65,1.89 -1.43,1.25 -2.49,2.34l-3.51 3c-1.51,1.29 -5.87,4.21 -7.72,5.27 -1.38,0.79 -2.75,1.62 -4.08,2.43l-8.71 4.28c-5.19,2.11 -4.49,2.98 -9.53,0.77 -4.48,-1.96 -8.8,-3.91 -12.97,-6.53 -1.36,-0.85 -2.8,-1.62 -4.04,-2.45 -1.37,-0.91 -2.44,-1.8 -3.77,-2.75l-3.65 -2.85c-1.26,-1.12 -4.21,-3.67 -5.09,-4.74l-2.24 -2.61c-8.06,-9.29 -10.74,-20.07 -10.92,-32.84 -0.12,-8.64 0.04,-17.37 0.01,-26.02 -0.01,-4.33 -0.04,-8.68 0,-13.01 0.02,-1.99 -0.19,-4.21 0.66,-5.89 1.58,-3.11 5.07,-3.55 8.5,-4.35 1.72,-0.4 3.51,-0.86 5.19,-1.29 3.51,-0.9 6.91,-1.78 10.39,-2.64l20.76 -5.21zm0.02 -5.42l-34.31 8.58c-2.08,0.53 -9.99,2.4 -11.38,2.96 -3.08,1.25 -5.64,4.22 -5.75,8.57 -0.12,4.72 -0.01,9.61 -0.01,14.35 -0,9.56 -0.04,19.13 -0,28.69 0.05,14.61 3.53,24.2 11.77,34.74 0.31,0.4 0.57,0.58 0.87,0.96 1.87,2.42 3.06,3.18 4.32,4.68 0.91,1.08 6.39,5.43 7.82,6.52 1.41,1.07 2.74,1.9 4.26,2.91 4.18,2.77 20.56,12.17 24.56,11.18 4.33,-1.07 15.71,-7.07 19.27,-9.24 7.05,-4.31 8.81,-5.91 14.39,-10.63 0.43,-0.36 0.49,-0.53 0.88,-0.95 0.32,-0.35 0.59,-0.56 0.93,-0.9 0.32,-0.32 0.49,-0.53 0.82,-0.85 4.34,-4.16 8.71,-10.61 10.95,-16.07 3.36,-8.18 4.18,-14.88 4.16,-24.53 -0.02,-9.56 -0,-19.13 0,-28.69 0,-3.26 0.39,-11.43 -0.22,-14.12 -0.85,-3.8 -3.44,-6.18 -7.19,-7.16 -7.62,-1.99 -15.3,-3.69 -22.92,-5.74 -3.78,-1.02 -7.64,-1.95 -11.45,-2.9 -2.42,-0.6 -9.62,-2.77 -11.76,-2.37z"/>
   <path class="fil2" d="M27.22 26.73c0.68,-0.38 22.73,-0.3 25.15,-0.15 0.42,-1.9 0.1,-13.56 0.12,-16.5 -2.54,0.24 -26.91,6.71 -31.67,7.88 -1.76,0.43 -3.47,0.85 -5.18,1.33 -6.3,1.75 -5.07,0.56 -5.15,14.74 -0.06,10.57 -0.17,22.52 0.01,33.03l0.19 4.85c0.09,0.96 0.1,0.66 0.64,0.99 -0.34,0.21 -0.32,0.05 -0.47,0.55 0.23,0.37 0.14,0.6 0.15,1.17l0.67 -0.57c0.78,-0.4 0.54,0.2 1.04,-0.64 0.37,0.53 -0.25,0.29 0.5,0.39l1.34 -0.46c0.81,-0.32 0.46,-0.46 0.87,-0.43 0.65,0.05 -0.34,0.26 0.69,0.08 1.04,-0.18 0.28,-0.09 0.66,-0.33l0.62 -0.23c-0.03,-0.04 -0.11,-0.16 -0.12,-0.18l-0.2 -0.64c0.05,0.01 0.18,0 0.2,0 0.59,-0.05 -0.03,-0.19 0.56,0.03l0.48 0.14c0.03,0 0.28,-0.06 0.29,-0.06l0.38 0.08c0.03,0.01 0.09,0.05 0.11,0.06 0.02,0.01 0.07,0.05 0.11,0.07 0.03,-0.03 0.08,-0.12 0.09,-0.09 0,0 -0,-0.15 0.95,-0.51 0.35,-0.13 0.1,0.24 0.33,-0.22 0.81,0.81 -0.65,0.14 0.4,0.7 0.68,0.36 0.28,-0.18 1.11,0.14 -0.09,-0.46 -0.16,-0.5 -0.19,-1.02l1.53 -0.26c0.3,-0.08 0.08,0.01 0.28,-0.12 0.71,-0.49 -0.27,-0.19 0.5,-0.44 0.77,0.55 -0.18,-0.26 0.14,0.65 0.04,-0.02 0.1,-0.1 0.12,-0.06l0.48 -0.4c0.02,-0.03 0.05,-0.07 0.07,-0.09 0.42,-0.5 0.65,-1.05 1.39,-0.43l0.02 -1.15c0.5,0.85 0.19,1.98 0.41,3 0.38,-0.99 0.29,-28.79 0.29,-33.73 0,-1.7 -0.17,-10.25 0.09,-11.12z"/>
   <path class="fil3" d="M67.16 43.93c2.89,5.8 0.54,12.01 -4.35,13.71 -3.09,1.08 -5.9,0.87 -9.27,0.86 -2.07,-0 -8.61,-0.28 -10.17,0.1 -0.52,-0.41 -0.33,-1.38 -0.33,-2.4 0,-2.72 -0.18,-16.07 0.1,-16.59l-0.02 18.98c-1.92,0.25 -4.6,1.26 -6.12,2.41 -0.31,0.23 -0.64,0.48 -0.83,0.65 -0.4,0.36 -0.28,0.39 -0.88,0.63l0 -29.19c8.22,0.27 16.89,-0.39 25.04,0.14 7.6,0.49 13.06,4.64 14.82,10.13 -0.35,0.2 -0.26,0.06 -0.71,0.2 -2.21,0.7 -0.45,0.58 -1.9,0.26l-0.45 0.49c-0.04,-0.02 -0.1,-0.03 -0.13,-0.04 -0.03,-0.01 -0.09,-0.03 -0.13,-0.05 -0.03,-0.01 -0.09,-0.03 -0.12,-0.05l-0.9 -0.54c-0.34,0.57 -0.18,0.03 -0.1,0.78 0,0.03 0.01,0.08 0.01,0.11 0.06,0.56 -0.2,0.66 0.59,0.94 -1.33,0.01 0.29,-0.45 -1.33,-0.27 -0.15,0.02 -0.4,0.12 -0.43,0.12 -0.81,0.07 0.73,0.25 -0.2,-0.03l-0.65 -0.22c-0.61,-0.15 -0.88,-0.69 -1.08,-1.43 -0.79,-0.09 -0.24,-0.11 -0.46,0.3zm-39.8 37.2c0.15,-0.24 0.03,0.01 0.17,-0.41 1.29,-3.91 1.45,-5.77 4.42,-9.09 11.24,-12.58 30.22,-1.17 40.32,-11.86 1.44,-1.52 2.94,-3.62 3.54,-6l0.54 0.61c0.65,0.77 0.63,0.16 0.8,0.94 0.05,0.24 1,0.35 1.64,0.59 0.02,0.01 0.07,0.02 0.09,0.03l0.27 0.32c0.01,0.02 0.02,0.08 0.02,0.1l0.05 0.21c1.03,0.37 -0.14,-0.22 0.46,-0.02l0.28 0.22c0.03,0.03 0.07,0.07 0.09,0.09 0.03,0.03 0.08,0.08 0.1,0.1 0.02,0.02 0.07,0.07 0.1,0.1 0.23,-0.91 0.5,-0.77 0.63,-0.82 0,0 -0.21,0.2 0.12,0.53 0.03,0.03 0.21,0.13 0.25,0.14 1.54,0.51 0.11,-0.39 0.96,0 0.07,0.27 -0.15,1.03 -0.45,1.31 0.02,1.09 -0.06,0.13 0.32,0.47 3.62,-8 2.63,-16.76 -2.04,-22.85 -1.82,-2.37 -4.68,-4.95 -8.02,-6.47 -3.21,-1.46 -8.03,-2.89 -12.05,-2.68l-32.6 -0.01 0.01 54.43z"/>
   <path class="fil4" d="M51.4 105.53c0.02,-0.04 6.49,-6.09 7.28,-7.16 0.77,-1.03 0.66,-0.88 4,-0.79 -0.36,0.8 -2.9,3.89 -3.64,4.65 -3.51,3.66 -2.27,3.29 -5,3.29l-2.64 -0zm10.51 -11.17c0.99,-2.45 1.56,-1.33 2.83,-6.77l1.9 0.03c0.15,2.41 -1.07,4.96 -1.89,6.77l-2.84 -0.03zm2.8 -9.31c-0.59,-3.14 -1.81,-3.85 -2.16,-4.65l1.35 -0c0.92,1.07 2.2,2.55 2.51,4.66l-1.69 -0.02zm-2.76 -6.26c-1.5,0.12 -1.77,-0.48 -2.72,-1.09l-1.92 -1.07c-0.09,-0.04 -0.23,-0.11 -0.34,-0.18 -0.18,-0.11 -0.23,-0.17 -0.33,-0.25 1.42,0.03 4.8,1.96 5.32,2.58zm-31.14 28.18c0.29,0.51 -0.02,0.09 0.36,0.46 0.06,0.05 0.22,0.18 0.29,0.23 1.63,1.19 8.89,5.58 9.92,5.76 0.56,-0.55 1.47,-1.17 2.05,-1.62 2.6,-2.03 2.75,-2.53 4.77,-2.51 1.16,0.01 2.33,0.03 3.49,-0.01 -0.21,0.49 -2.72,2.62 -3.26,3.03 -0.67,0.51 -2.89,2.57 -3.42,2.77 0.38,0.66 1.33,0.88 2.47,1.38 4.74,2.1 4.46,2.39 7.67,1.07 1.67,-0.69 3.48,-1.42 4.98,-2.19 1.5,-0.77 3.11,-1.46 4.47,-2.4l4.06 -5.9c1.27,-1.91 2.41,-3.94 3.49,-6.18 2.23,-4.6 3.89,-10.44 1.36,-15.64 -1.89,-3.89 -5.92,-6.93 -10.63,-8.7 -4.82,-1.82 -10.67,-3.43 -16.42,-3.02 0.5,0.39 0.79,0.38 1.73,0.7 1.54,0.51 3.39,1.29 4.73,2.1 2.08,1.24 3.62,2.35 4.73,4.45 1.21,2.27 0.77,5.29 -0.47,7.3 -1.21,1.96 -3.69,4.88 -5.28,6.06l-3.83 3.01c-2.76,2.05 -15.51,9.67 -17.29,9.84z"/>
   <path class="fil5" d="M77.3 104.96c-0.23,0.54 -0.19,0.48 -0.8,0.72l-1.25 0.82c-0.17,0.27 0.02,0.19 -0.44,0.53 -0.2,0.15 -0.36,0.21 -0.64,0.34 -0.8,0.27 -1.74,1.4 -2.54,1.49 -0.2,0.42 0.2,0.17 -0.33,0.4 -0.31,0.38 -0.51,0.67 -0.92,0.63l-0.28 -0.12c-0.51,0.75 -1.66,1.27 -2.52,1.7 -1.01,0.51 -1.92,1.29 -2.97,1.48 -1.37,0.94 -2.97,1.63 -4.47,2.4 -1.5,0.77 -3.31,1.5 -4.98,2.19 -3.21,1.33 -2.93,1.03 -7.67,-1.07 -1.14,-0.5 -2.09,-0.72 -2.47,-1.38l-0.23 0.16c-0,0 -0.04,0.01 -0.04,0.01 -0,0 -0.01,-0.02 0,-0.03 -0.6,-0.2 -1.11,-0.5 -1.69,-0.81l-1.32 -0.65c-0.41,-0.28 -0.06,0.15 -0.35,-0.34 -1.03,-0.18 -8.29,-4.57 -9.92,-5.76 -0.07,-0.05 -0.23,-0.17 -0.29,-0.23 -0.38,-0.37 -0.08,0.06 -0.36,-0.46 -0.37,0.17 -0.37,-0.03 -1,-0.5 -0.25,-0.19 -0.78,-0.6 -1.21,-0.8 0.33,0.04 0.01,0.04 0.16,-0.2 -0.78,-0.13 -1.28,-0.66 -1.84,-1.12 -0.53,-0.43 -1.26,-0.85 -1.54,-1.53 -0.67,-0.05 -0.98,-0.45 -1.43,-1 -0.39,-0.47 -0.83,-0.77 -1.3,-1.21l-5.89 -6.61c-8.06,-10.87 -8.5,-20.39 -8.4,-33.63l0.02 -29.86c0,-12 -1.11,-11.52 6.45,-13.38l31.51 -7.97c2.86,-0.71 5.18,-1.82 8.27,-1.07 10.46,2.54 21.19,5.27 31.63,8.01 10.5,2.75 10.38,1.22 10.44,9.41 0.04,6.54 0.06,13.15 0.01,19.68 -0.05,6.62 0.09,13.24 0.08,19.85 -0.01,6.35 -0.59,11.82 -2.4,17.51 -1.96,6.16 -4.91,9.99 -8.18,14.16 -0.88,1.13 -5.22,5.48 -6.18,6.17l-2.71 2.07zm-25.83 -99.49l-20.76 5.21c-3.48,0.85 -6.87,1.73 -10.39,2.64 -1.68,0.43 -3.47,0.89 -5.19,1.29 -3.43,0.8 -6.92,1.24 -8.5,4.35 -0.85,1.67 -0.64,3.9 -0.66,5.89 -0.04,4.33 -0.02,8.68 -0,13.01 0.03,8.65 -0.13,17.38 -0.01,26.02 0.17,12.77 2.85,23.55 10.92,32.84l2.24 2.61c0.88,1.06 3.83,3.61 5.09,4.74l3.65 2.85c1.33,0.95 2.4,1.84 3.77,2.75 1.25,0.83 2.69,1.59 4.04,2.45 4.17,2.63 8.5,4.57 12.97,6.53 5.04,2.21 4.34,1.34 9.53,-0.77l8.71 -4.28c1.33,-0.81 2.7,-1.64 4.08,-2.43 1.85,-1.06 6.21,-3.99 7.72,-5.27l3.51 -3c1.05,-1.09 0.84,-0.45 2.49,-2.34l2.35 -2.48c0.79,-0.68 2.14,-2.53 2.87,-3.47 7.52,-9.67 9.26,-20.72 9.23,-33.23l-0.02 -38.86c-0.01,-4.44 -2.15,-6.15 -5.99,-7.12 -10.01,-2.53 -21.11,-5.48 -31.13,-7.86 -2.77,-0.66 -7.95,-2.41 -10.52,-2.06z"/>
   <path class="fil6" d="M43.37 58.6l-0.03 -18.77c0.59,-0.52 2.99,-0.25 3.87,-0.25 2.15,0 11.08,-0.22 11.83,0.15 2.36,-0.48 5.65,1.29 7.43,3.2 0.21,0.23 0.48,0.7 0.7,1 0.22,-0.42 -0.34,-0.4 0.46,-0.3 0.2,0.74 0.47,1.28 1.08,1.43l0.65 0.22c0.93,0.28 -0.61,0.1 0.2,0.03 0.03,-0 0.28,-0.1 0.43,-0.12 1.62,-0.18 -0,0.28 1.33,0.27 -0.79,-0.28 -0.53,-0.38 -0.59,-0.94 -0,-0.03 -0.01,-0.08 -0.01,-0.11 -0.09,-0.74 -0.24,-0.21 0.1,-0.78l0.9 0.54c0.04,0.02 0.09,0.03 0.12,0.05 0.04,0.01 0.1,0.03 0.13,0.05 0.03,0.01 0.09,0.02 0.13,0.04l0.45 -0.49c1.45,0.32 -0.31,0.44 1.9,-0.26 0.45,-0.14 0.36,-0 0.71,-0.2 -1.76,-5.49 -7.23,-9.63 -14.82,-10.13 -8.15,-0.53 -16.82,0.13 -25.04,-0.14l-0 29.19c0.6,-0.24 0.49,-0.27 0.88,-0.63 0.19,-0.17 0.53,-0.42 0.83,-0.65 1.52,-1.15 4.2,-2.16 6.12,-2.41l0.02 -18.98c-0.28,0.52 -0.09,13.87 -0.1,16.59 -0,1.02 -0.19,1.99 0.33,2.4z"/>
   <path class="fil7" d="M27.36 81.13c0.01,0.29 -0.01,0.15 0.06,0.4 0.01,0.03 0.05,0.14 0.06,0.12 0.01,-0.02 0.05,0.07 0.07,0.11 0.76,-2.16 2.62,-4.12 4.25,-5.45 6.44,-5.23 15.95,-4.92 24.07,-4.89 6.55,0.02 10.91,-0.32 16.42,-2.95 1.08,-0.51 2.08,-1.17 3.02,-1.82 2.61,-1.84 5.54,-4.92 6.76,-7.93 -0.37,-0.33 -0.3,0.62 -0.32,-0.47 0.31,-0.28 0.53,-1.05 0.45,-1.31 -0.86,-0.39 0.58,0.51 -0.96,-0 -0.04,-0.01 -0.23,-0.12 -0.25,-0.14 -0.33,-0.33 -0.12,-0.53 -0.12,-0.53 -0.13,0.05 -0.4,-0.09 -0.63,0.82 -0.04,-0.03 -0.08,-0.08 -0.1,-0.1 -0.02,-0.02 -0.07,-0.07 -0.1,-0.1 -0.03,-0.03 -0.07,-0.07 -0.09,-0.09l-0.28 -0.22c-0.59,-0.2 0.57,0.39 -0.46,0.02l-0.05 -0.21c-0,-0.02 -0.01,-0.08 -0.02,-0.1l-0.27 -0.32c-0.02,-0.01 -0.07,-0.02 -0.09,-0.03 -0.64,-0.24 -1.59,-0.35 -1.64,-0.59 -0.17,-0.78 -0.15,-0.17 -0.8,-0.94l-0.54 -0.61c-0.6,2.38 -2.1,4.48 -3.54,6 -10.11,10.68 -29.09,-0.73 -40.32,11.86 -2.97,3.33 -3.12,5.18 -4.42,9.09 -0.14,0.42 -0.02,0.17 -0.17,0.41z"/>
   <path class="fil8" d="M43.37 58.6c1.56,-0.37 8.09,-0.1 10.17,-0.1 3.37,0 6.18,0.21 9.27,-0.86 4.9,-1.71 7.25,-7.92 4.35,-13.71 -0.22,-0.3 -0.49,-0.77 -0.7,-1 -1.77,-1.91 -5.06,-3.68 -7.43,-3.2l-6.59 0.06c0.38,1.07 0.03,15.96 0.03,18.4l-8.91 0.08c0.03,-5.85 -0.14,-11.79 -0.03,-17.61 0.02,-1.1 0.23,-0.66 -0.2,-0.84l0.03 18.77z"/>
   <path class="fil9" d="M59.03 39.73c-0.75,-0.37 -9.68,-0.15 -11.83,-0.15 -0.88,-0 -3.28,-0.27 -3.87,0.25 0.43,0.18 0.22,-0.26 0.2,0.84 -0.11,5.81 0.06,11.76 0.03,17.61l8.91 -0.08c-0,-2.44 0.35,-17.32 -0.03,-18.4l6.59 -0.06z"/>
   <path class="fil10" d="M35.26 77.63c0.34,0.7 -0.17,13.7 0.04,16.12 0.07,0.84 -0.07,0.44 0.28,0.83 1.13,-0.31 7.05,-3.47 7.72,-4.08l0.03 -14.63c-1.68,-0.3 -7.22,0.65 -8.06,1.76z"/>
   <path class="fil4" d="M35.58 94.58c-0.35,-0.39 -0.21,0.01 -0.28,-0.83 -0.21,-2.43 0.3,-15.42 -0.04,-16.12 -1.17,0.14 -3.67,2.25 -4.28,2.87 -0.98,1.01 -2.09,2.56 -2.82,4.18 -1.5,3.34 -0.84,9.42 -0.85,13.39 1.09,-0.27 7.75,-3.03 8.26,-3.49z"/>
   <path class="fil11" d="M55.22 81.45c-0.27,2.75 0.09,2.95 -1.45,5.01 -2.52,3.38 -6.96,6.34 -10.81,8.37 -2.86,1.51 -5.64,2.89 -8.6,4.24 -1.49,0.68 -2.99,1.27 -4.54,1.96 -1.41,0.63 -3.16,1.12 -4.44,1.8 0.29,0.68 1.02,1.1 1.54,1.53 0.56,0.46 1.06,0.99 1.84,1.12 5.96,-2.86 12.04,-6.04 17.02,-9.5 3.35,-2.33 4.33,-3.14 7.17,-6 1.99,-2 4.4,-5.73 2.72,-8.72 -0.02,-0.04 -0.1,-0.15 -0.12,-0.17 -0.01,-0.01 -0.06,-0.03 -0.06,-0.07 -0.01,-0.04 -0.04,-0.05 -0.06,-0.07l-0.21 0.5z"/>
   <path class="fil12" d="M70.2 78.4c0.57,1.03 13.43,7.58 2.82,26.66 -0.51,0.91 -1.7,2.54 -1.89,3.37l-0.1 0.59 0.59 -0.16c0.81,-0.09 1.75,-1.22 2.54,-1.49 0.21,-0.37 -0.08,-0.17 0.44,-0.56 0.26,-0.2 0.33,-0.19 0.64,-0.31l1.25 -0.82c0.23,-0.38 -0.08,-0.1 0.35,-0.46 0.34,-0.29 0.22,-0.14 0.45,-0.25 0.13,-0.82 1.64,-4.26 2.16,-7.46 0.89,-5.48 -0.12,-11.14 -3.7,-15.17 -1.02,-1.15 -3.73,-3.84 -5.19,-4.2l-0.57 -0.08 0.2 0.35z"/>
   <path class="fil13" d="M51.4 105.53l2.64 0c2.73,-0 1.49,0.37 5,-3.29 0.73,-0.76 3.27,-3.85 3.64,-4.65 -3.33,-0.1 -3.22,-0.25 -4,0.79 -0.8,1.06 -7.26,7.11 -7.28,7.16z"/>
   <path class="fil13" d="M41.38 113.42c0.28,0.49 -0.07,0.06 0.35,0.34l1.32 0.65c0.58,0.31 1.09,0.61 1.69,0.81 -0.01,0 -0,0.03 -0,0.03 0,-0 0.04,-0.01 0.04,-0.01l0.23 -0.16c0.54,-0.21 2.75,-2.26 3.42,-2.77 0.53,-0.41 3.05,-2.54 3.26,-3.03 -1.16,0.04 -2.33,0.02 -3.49,0.01 -2.02,-0.02 -2.17,0.48 -4.77,2.51 -0.58,0.45 -1.48,1.07 -2.05,1.62z"/>
   <path class="fil14" d="M27.55 81.76c-0.02,-0.04 -0.07,-0.14 -0.07,-0.11 -0.01,0.02 -0.05,-0.09 -0.06,-0.12 -0.07,-0.25 -0.05,-0.11 -0.06,-0.4l-0.01 -54.43 32.6 0.01c-0.22,-0.31 -6.65,-0.11 -7.58,-0.13 -2.42,-0.15 -24.47,-0.23 -25.15,0.15 -0.21,1 -0.07,11.84 -0.07,13.79l0.03 27.69c-0.01,4.28 -0.25,9.63 0.1,13.79l0.27 -0.24z"/>
   <path class="fil15" d="M61.91 94.35l2.84 0.03c0.82,-1.8 2.04,-4.35 1.89,-6.77l-1.9 -0.03c-1.28,5.43 -1.85,4.31 -2.83,6.77z"/>
   <path class="fil16" d="M64.71 85.05l1.69 0.02c-0.3,-2.11 -1.58,-3.59 -2.51,-4.66l-1.35 0c0.35,0.8 1.57,1.51 2.16,4.65z"/>
   <path class="fil17" d="M70.2 78.4l-0.2 -0.35 0.57 0.08c-0.18,-0.24 -0.04,-0.13 -0.28,-0.34l-2.79 -1.38c-0.94,-0.4 -2.46,-1.02 -3.39,-1.12l6.09 3.1z"/>
   <path class="fil18" d="M61.95 78.79c-0.52,-0.62 -3.9,-2.55 -5.32,-2.58 0.1,0.08 0.16,0.14 0.33,0.25 0.11,0.07 0.25,0.13 0.34,0.18l1.92 1.07c0.95,0.61 1.22,1.22 2.72,1.09z"/>
   <path class="fil19" d="M55.22 81.45l0.21 -0.5c-0.33,-0.79 -0.39,-0.83 -1.09,-1.32l0.88 1.81z"/>
   <path class="fil20" d="M70.49 109.14c0.29,0.57 -0.26,0.33 0.8,0.11 0.54,-0.22 0.13,0.02 0.33,-0.4l-0.59 0.16 0.1 -0.59c-0.3,0.2 -0.1,-0.02 -0.42,0.34 -0.13,0.15 -0.15,0.25 -0.23,0.37z"/>
   <path class="fil21" d="M70.1 109.75l0.28 0.12c0.41,0.04 0.61,-0.24 0.92,-0.63 -1.06,0.22 -0.51,0.46 -0.8,-0.11 -0.2,0.21 0.02,-0.1 -0.27,0.33 -0.1,0.15 -0.04,0.06 -0.13,0.28z"/>
   <path class="fil22" d="M74.17 107.36c0.28,-0.13 0.45,-0.19 0.64,-0.34 0.46,-0.35 0.27,-0.27 0.44,-0.53 -0.32,0.12 -0.38,0.11 -0.64,0.31 -0.52,0.4 -0.23,0.19 -0.44,0.56z"/>
   <path class="fil21" d="M76.5 105.67c0.61,-0.23 0.57,-0.17 0.8,-0.72 -0.23,0.11 -0.11,-0.04 -0.45,0.25 -0.43,0.37 -0.11,0.08 -0.35,0.46z"/>
  </g>
 </g>
</svg>
