<svg width="205" height="32" viewBox="0 0 205 32" fill="none" xmlns="http://www.w3.org/2000/svg">
<rect width="205" height="32" fill="#F5F5F5"/>
<rect width="1920" height="3586" transform="translate(-370 -72)" fill="white"/>
<mask id="path-1-inside-1_248_13368" fill="white">
<path d="M-370 -72H1550V49H-370V-72Z"/>
</mask>
<path d="M1550 48H-370V50H1550V48Z" fill="#B1B1B3" mask="url(#path-1-inside-1_248_13368)"/>
<rect width="1920" height="64" transform="translate(-370 -16)" fill="#0066CC"/>
<g clip-path="url(#clip0_248_13368)">
<path d="M15.546 2.19449C12.7844 3.3693 10.5042 3.85207 8.76607 3.6214L0 3.39072V4.90166C3.87048 4.90166 6.86205 4.90166 8.83014 4.73359C11.6755 4.56553 13.4744 4.25082 14.2695 3.78946C17.6586 1.73313 20.8178 0.935644 23.811 1.6491C26.9701 2.36255 28.7066 4.41888 29.0204 7.98616C29.2504 10.3572 28.4766 12.4135 26.8026 14.0085C24.9823 15.6661 22.7021 16.3795 19.9405 15.9808C18.1203 15.7501 16.7814 15.0993 16.0076 14.0711C15.0663 12.8749 14.5849 11.4694 14.6687 10.0425C14.6687 7.98616 15.3801 6.32857 16.6352 5.04831C17.8903 3.76804 19.7319 3.07601 21.8445 3.07601C23.4972 3.07601 24.7523 3.47475 25.7775 4.25082C26.8026 5.04831 27.2839 6.22312 27.2839 7.65003C27.2839 9.16097 26.8864 10.2517 26.175 11.0492C25.4637 11.8467 24.6685 12.1614 23.811 12.1614C23.4134 12.2455 23.1834 12.0774 23.2672 11.6787C23.2672 11.448 23.351 10.7971 23.4972 9.93703L24.4386 5.82437L22.7859 5.59369C21.447 5.59369 20.1919 6.13908 18.9992 7.16725C17.8065 8.19541 17.2627 9.62232 17.1789 11.3639C17.2627 12.3921 17.6603 12.8749 18.2041 12.9375C18.7478 12.9375 19.4592 12.4547 20.3381 11.8253C21.217 11.1118 21.8445 10.3984 22.3045 9.68494L21.907 11.5106C21.8232 11.7413 21.7394 11.9934 21.7394 12.224C21.6556 12.7694 21.9694 13.0215 22.7645 13.0215C24.3334 13.0215 25.6099 12.4761 26.4674 11.448C27.4088 10.5038 27.8901 9.30761 27.9739 7.81809C27.9739 6.24454 27.4301 4.88024 26.405 3.93611C25.3799 2.90794 23.811 2.42517 21.8232 2.36255C19.6054 2.36255 17.6389 3.16004 15.8187 4.50292C13.9984 5.92983 13.0571 7.81809 12.9733 10.1891C12.9733 12.4135 13.7685 13.9871 15.0236 15.0152C15.5673 15.498 16.2787 15.8127 16.99 16.0434C16.1949 16.2741 15.7973 16.9249 15.7349 17.8691V31.7823L16.3625 18.3304C16.5925 17.0716 17.1576 16.4207 18.1827 16.3581L19.7516 16.5888C22.5132 16.7569 24.7934 16.106 26.7615 14.7631C28.8117 13.2522 29.8369 11.1959 29.7531 8.59416C29.7531 5.99244 28.9579 3.99872 27.3891 2.59158C25.8826 1.24871 23.8324 0.535253 21.2383 0.367188C20.4432 0.367188 19.5857 0.535253 18.4768 0.912576C18.2254 1.08064 17.2003 1.47939 15.5476 2.19284L15.546 2.19449ZM20.1902 7.10464C20.5878 6.70589 21.0691 6.55925 21.6967 6.55925C22.2405 6.55925 22.7218 6.64328 23.0356 6.78993C22.9518 7.58741 22.5542 8.44751 22.0943 9.245C21.4667 10.2732 20.9016 10.9866 20.3578 11.3854C19.814 11.7841 19.4789 11.9308 19.1651 11.9308C18.7675 11.8467 18.6213 11.616 18.6213 11.1333C18.6213 10.2517 18.7889 9.47568 19.1651 8.76222C19.4789 8.04877 19.7927 7.41935 20.1902 7.10464ZM2.05024 18.8989C2.28023 18.1014 2.53158 17.64 2.84536 17.3253C3.07535 17.0106 3.47292 16.7799 3.95426 16.7799C4.26804 16.7799 4.58182 16.864 4.81181 17.0106C4.95676 17.0871 5.07817 17.2017 5.16299 17.3423C5.2478 17.4828 5.29281 17.6438 5.29316 17.8081L5.06316 31.8053H6.15071V17.7867C6.15071 17.2413 5.92071 16.7585 5.43937 16.4438C5.04181 16.2131 4.58182 16.1291 4.01669 16.1291C2.61537 16.1291 1.96645 16.9892 2.05024 18.8989Z" fill="white"/>
<path d="M0 11.9327V13.129C1.3389 12.6462 5.04181 12.4995 11.1942 12.6462C7.40746 12.1634 3.70291 11.9327 0 11.9327ZM0 9.476V10.5042C3.24292 10.0214 6.86205 9.70668 10.7342 9.56003L0 9.476ZM0 6.79025V7.98648C5.52315 7.67177 9.22771 7.18899 11.1942 6.55957C8.05638 6.87428 4.26804 6.93689 0 6.79025ZM9.62527 17.3042C9.85526 16.9895 10.2528 16.7588 10.7342 16.7588C11.0479 16.7588 11.2779 16.8429 11.6131 16.9895C11.8431 17.1576 12.0106 17.4723 12.0106 17.787L11.7806 31.7842H12.9733V17.787C12.9733 17.2416 12.7433 16.7588 12.262 16.4441C11.8644 16.2134 11.4669 16.1294 10.8393 16.1294C9.41663 16.1294 8.78907 17.0109 8.87286 18.8992C9.0815 18.1857 9.31149 17.6189 9.62691 17.3042H9.62527Z" fill="white"/>
<path d="M37.2213 11.1731C37.2213 2.68081 37.269 5.73894 37.2443 1.17646C37.2443 0.258689 37.315 0 37.5022 0C37.6895 0 38.0887 0.517378 38.3237 0.752999C38.6752 1.15339 42.1695 4.93981 45.7821 8.82179C48.1034 11.3148 50.6596 14.1851 51.4103 14.9611L51.1524 3.012C51.1294 1.48293 50.9651 0.965553 50.2374 0.777715C49.8152 0.683796 49.4406 0.660728 49.2287 0.660728C48.9708 0.660728 48.9001 0.589877 48.9001 0.495958C48.9001 0.354256 49.0874 0.331188 49.37 0.331188C50.4247 0.331188 51.5516 0.402039 51.8095 0.402039C52.0675 0.402039 52.8412 0.331188 53.8023 0.331188C54.0602 0.331188 54.2245 0.354256 54.2245 0.495958C54.2245 0.589877 54.1308 0.63766 53.9666 0.660728C53.7793 0.683796 53.638 0.708511 53.3571 0.754647C52.7 0.896349 52.5357 1.24896 52.5357 2.87194L52.488 16.6088C52.488 18.161 52.4404 18.2796 52.2778 18.2796C52.0905 18.2796 51.8095 18.0209 50.5659 16.7736C50.308 16.538 46.9304 13.0811 44.4448 10.3986C41.7243 7.45914 39.0744 4.49493 38.3237 3.64801L38.6292 14.915C38.6769 16.8444 38.9101 17.4557 39.5443 17.6436C39.9895 17.7606 40.5053 17.7853 40.7172 17.7853C40.8339 17.7853 40.9045 17.8331 40.9045 17.927C40.9045 18.0687 40.7632 18.1148 40.4823 18.1148C39.1451 18.1148 38.207 18.044 37.9967 18.044C37.7865 18.044 36.8008 18.1148 35.7444 18.1148C35.5095 18.1148 35.3699 18.0918 35.3699 17.927C35.3699 17.8331 35.4405 17.7853 35.5572 17.7853C35.7444 17.7853 36.1666 17.7622 36.5182 17.6436C37.1047 17.4788 37.2213 16.7967 37.2213 14.6563V11.1747V11.1731ZM56.8037 9.19747C56.8037 5.38633 59.5719 0 66.0446 0C71.3213 0 75.2608 3.33989 75.2608 8.82179C75.2608 14.3037 71.5546 18.4427 65.9033 18.4427C59.4766 18.4427 56.8037 13.4321 56.8037 9.19747ZM73.0101 9.47922C73.0101 3.8342 69.5865 0.799135 65.8803 0.799135C61.9638 0.799135 59.0314 3.38603 59.0314 8.53839C59.0314 14.0186 62.3154 17.548 66.5358 17.548C68.6468 17.548 73.0085 16.3254 73.0085 9.47922H73.0101ZM79.859 7.15102C79.859 3.48159 79.859 2.82251 79.8114 2.06951C79.7637 1.27038 79.5765 0.893054 78.8027 0.728284C78.6154 0.680501 78.2162 0.657433 78.0059 0.657433C77.9123 0.657433 77.8186 0.609649 77.8186 0.51573C77.8186 0.374028 77.9353 0.327892 78.1932 0.327892C79.2479 0.327892 80.7264 0.398744 80.8431 0.398744C81.101 0.398744 82.8834 0.327892 83.6112 0.327892C85.0881 0.327892 86.6603 0.469595 87.9023 1.36265C88.4887 1.78611 89.5204 2.9395 89.5204 4.56248C89.5204 6.30246 88.7927 8.04408 86.6833 9.9966C88.607 12.4665 90.2006 14.5607 91.5608 16.0189C92.8274 17.3602 93.8361 17.6189 94.4226 17.7128C94.8678 17.7836 95.1964 17.7836 95.3377 17.7836C95.4543 17.7836 95.5496 17.8545 95.5496 17.9253C95.5496 18.067 95.4083 18.1132 94.9861 18.1132H93.3203C92.0077 18.1132 91.4212 17.9962 90.81 17.6667C89.8014 17.1262 88.9799 15.9728 87.6443 14.2081C86.6586 12.9147 85.5563 11.3378 85.0881 10.7265C84.9945 10.6326 84.9238 10.5848 84.7825 10.5848L81.8978 10.537C81.7811 10.537 81.7335 10.6079 81.7335 10.7249V11.29C81.7335 13.549 81.7335 15.406 81.8501 16.3946C81.9208 17.0768 82.0604 17.5942 82.7652 17.6881C83.0937 17.7359 83.6096 17.782 83.8199 17.782C83.9611 17.782 84.0071 17.8528 84.0071 17.9237C84.0071 18.0407 83.8905 18.1115 83.6326 18.1115C82.343 18.1115 80.8644 18.0407 80.7478 18.0407C80.7248 18.0407 79.2462 18.1115 78.5431 18.1115C78.2852 18.1115 78.1686 18.0637 78.1686 17.9237C78.1686 17.8528 78.2162 17.782 78.3558 17.782C78.5661 17.782 78.8487 17.7342 79.059 17.6881C79.5288 17.5942 79.6455 17.0768 79.7391 16.3946C79.8557 15.406 79.8557 13.549 79.8557 11.29V7.14937L79.859 7.15102ZM81.7351 9.19747C81.7351 9.31445 81.7828 9.41002 81.8994 9.47922C82.251 9.69013 83.3303 9.8549 84.362 9.8549C84.9255 9.8549 85.581 9.78405 86.1214 9.40837C86.9428 8.84321 87.5523 7.57448 87.5523 5.78508C87.5523 2.84558 86.0048 1.08089 83.4946 1.08089C82.7915 1.08089 82.1573 1.15174 81.924 1.22259C81.8074 1.27038 81.7368 1.3643 81.7368 1.50435V9.19582L81.7351 9.19747Z" fill="white"/>
<path d="M114.265 15.0778C114.358 15.9247 114.522 17.2412 115.531 17.5708C116.211 17.7833 116.75 17.7833 116.985 17.7833C117.102 17.7833 117.243 17.8064 117.243 17.925C117.243 18.0667 117.172 18.1129 116.891 18.1129C116.376 18.1129 113.701 18.042 112.834 17.9712C112.295 17.9234 112.177 17.8542 112.177 17.7355C112.177 17.6416 112.224 17.6186 112.341 17.5708C112.505 17.4999 112.482 17.1473 112.434 16.7239L111.309 4.44519L105.494 16.8178C105.001 17.8525 104.93 18.0651 104.72 18.0651C104.555 18.0651 104.439 17.8295 103.992 16.9825C103.383 15.8292 101.365 11.761 101.249 11.5254C101.037 11.1019 98.3407 5.29211 98.0828 4.6561L97.1217 15.7352C97.0987 16.1109 97.0741 16.4405 97.0741 16.8408C97.0741 17.4291 97.355 17.6169 97.7066 17.6878C98.1058 17.7817 98.4097 17.7817 98.551 17.7817C98.6923 17.7817 98.7859 17.8295 98.7859 17.8987C98.7859 18.0634 98.6693 18.1112 98.4344 18.1112C97.5669 18.1112 96.371 18.0404 96.1821 18.0404C95.9701 18.0404 94.8448 18.1112 94.2123 18.1112C93.9774 18.1112 93.8131 18.0882 93.8131 17.9234C93.8131 17.8295 93.9297 17.7817 94.048 17.7817C94.2353 17.7817 94.3996 17.7817 94.7512 17.7108C95.5249 17.5691 95.5726 16.7222 95.6892 15.7583L97.378 0.469289C97.401 0.2106 97.4947 -0.00195312 97.636 -0.00195312C97.7772 -0.00195312 97.8709 0.0919658 97.9875 0.350655L105.163 15.147L112.06 0.37537C112.154 0.162817 112.247 -0.000305424 112.411 -0.000305424C112.576 -0.000305424 112.646 0.187532 112.692 0.634059L114.263 15.0778H114.265Z" fill="white"/>
<path d="M122.027 11.1728C121.91 11.1728 121.84 11.2436 121.792 11.3606L120.384 15.5243C120.172 16.1126 120.056 16.6777 120.056 17.1012C120.056 17.5708 120.501 17.7833 120.9 17.7833H121.11C121.345 17.7833 121.416 17.8311 121.416 17.925C121.416 18.0667 121.205 18.1129 120.994 18.1129C120.43 18.1129 119.492 18.042 119.234 18.042C118.976 18.042 117.687 18.1129 116.584 18.1129C116.279 18.1129 116.139 18.0651 116.139 17.925C116.139 17.8311 116.256 17.7833 116.468 17.7833C116.632 17.7833 116.842 17.7603 117.031 17.7355C118.11 17.5938 118.579 16.7008 119.001 15.5243L124.325 0.915816C124.606 0.139749 124.7 -0.00195312 124.841 -0.00195312C124.982 -0.00195312 125.076 0.115034 125.357 0.844965C125.708 1.73802 129.392 11.4529 130.821 15.0284C131.665 17.1226 132.345 17.4983 132.838 17.64C133.19 17.757 133.566 17.7817 133.753 17.7817C133.895 17.7817 134.011 17.8048 134.011 17.9234C134.011 18.0651 133.799 18.1112 133.541 18.1112C133.19 18.1112 131.478 18.1112 129.86 18.0634C129.415 18.0404 129.157 18.0404 129.157 17.8987C129.157 17.8048 129.227 17.757 129.321 17.7339C129.462 17.6861 129.602 17.4752 129.462 17.0995L127.281 11.3128C127.233 11.2189 127.187 11.1711 127.07 11.1711H122.029L122.027 11.1728ZM126.765 10.3258C126.881 10.3258 126.881 10.255 126.858 10.1611L124.631 3.81083C124.514 3.45822 124.396 3.45822 124.279 3.81083L122.216 10.1611C122.168 10.2781 122.216 10.3258 122.286 10.3258H126.766H126.765ZM139.993 11.2914C139.993 13.5504 139.993 15.4073 140.109 16.396C140.18 17.0781 140.32 17.5955 141.024 17.6894C141.353 17.7372 141.869 17.7833 142.079 17.7833C142.22 17.7833 142.266 17.8542 142.266 17.925C142.266 18.042 142.15 18.1129 141.892 18.1129C140.602 18.1129 139.124 18.042 139.007 18.042C138.89 18.042 137.412 18.1129 136.709 18.1129C136.451 18.1129 136.334 18.0651 136.334 17.925C136.334 17.8542 136.382 17.7833 136.521 17.7833C136.733 17.7833 137.014 17.7355 137.225 17.6894C137.694 17.5955 137.811 17.0781 137.905 16.396C138.021 15.4073 138.021 13.5504 138.021 11.2914V1.34092C136.871 1.36399 135.7 1.36399 134.55 1.38871C133.096 1.41177 132.533 1.57654 132.158 2.14171C131.9 2.5421 131.83 2.70687 131.759 2.87164C131.688 3.05948 131.618 3.10726 131.524 3.10726C131.453 3.10726 131.407 3.03641 131.407 2.89471C131.407 2.65908 131.877 0.635707 131.923 0.447869C131.971 0.306167 132.065 0.00134228 132.158 0.00134228C132.322 0.00134228 132.557 0.236964 133.19 0.283099C133.87 0.35395 134.76 0.400086 135.043 0.400086H143.839C144.589 0.400086 145.128 0.352303 145.504 0.283099C145.856 0.235316 146.068 0.166112 146.162 0.166112C146.278 0.166112 146.278 0.307815 146.278 0.447869C146.278 1.15309 146.208 2.77607 146.208 3.03476C146.208 3.24731 146.137 3.34123 146.043 3.34123C145.927 3.34123 145.879 3.27038 145.856 2.94084C145.856 2.84692 145.833 2.77607 145.833 2.68215C145.762 1.97694 145.2 1.43484 142.948 1.38871C141.962 1.36564 140.978 1.36564 139.993 1.34092V11.2914Z" fill="white"/>
<path d="M155.775 11.291C155.775 13.55 155.775 15.407 155.892 16.3956C155.963 17.0777 156.104 17.5951 156.807 17.689C157.136 17.7368 157.651 17.783 157.862 17.783C158.003 17.783 158.049 17.8538 158.049 17.9247C158.049 18.0417 157.932 18.1125 157.674 18.1125C156.385 18.1125 154.906 18.0417 154.79 18.0417C154.673 18.0417 153.194 18.1125 152.491 18.1125C152.233 18.1125 152.117 18.0647 152.117 17.9247C152.117 17.8538 152.164 17.783 152.304 17.783C152.514 17.783 152.797 17.7352 153.007 17.689C153.477 17.5951 153.594 17.0777 153.687 16.3956C153.804 15.407 153.804 13.55 153.804 11.291V1.34056C152.654 1.36363 151.483 1.36363 150.333 1.38834C148.879 1.41141 148.315 1.57618 147.941 2.14134C147.683 2.54173 147.612 2.7065 147.541 2.87127C147.471 3.05911 147.4 3.10689 147.307 3.10689C147.236 3.10689 147.19 3.03604 147.19 2.89434C147.19 2.65872 147.658 0.635341 147.706 0.447504C147.753 0.305801 147.847 0.000976562 147.941 0.000976562C148.105 0.000976562 148.34 0.236598 148.972 0.282733C149.653 0.353585 150.543 0.39972 150.825 0.39972H159.621C160.372 0.39972 160.911 0.351937 161.287 0.282733C161.639 0.23495 161.85 0.165747 161.944 0.165747C162.061 0.165747 162.061 0.307449 162.061 0.447504C162.061 1.15272 161.99 2.7757 161.99 3.03439C161.99 3.24695 161.919 3.34087 161.826 3.34087C161.709 3.34087 161.662 3.27002 161.639 2.94048C161.639 2.84656 161.616 2.77571 161.616 2.68179C161.545 1.97657 160.983 1.43448 158.731 1.38834C157.745 1.36527 156.761 1.36527 155.775 1.34056V11.291Z" fill="white"/>
<path d="M166.26 7.15072C166.26 3.48129 166.26 2.82221 166.212 2.06921C166.164 1.27007 165.931 0.869681 165.415 0.751046C165.157 0.680195 164.852 0.657127 164.688 0.657127C164.594 0.657127 164.5 0.609344 164.5 0.515425C164.5 0.373723 164.617 0.327587 164.875 0.327587C165.649 0.327587 167.127 0.398438 167.244 0.398438C167.36 0.398438 168.839 0.327587 169.542 0.327587C169.8 0.327587 169.917 0.37537 169.917 0.515425C169.917 0.609344 169.823 0.657127 169.729 0.657127C169.565 0.657127 169.424 0.680195 169.143 0.727978C168.51 0.844965 168.321 1.24536 168.275 2.06921C168.228 2.82221 168.228 3.48129 168.228 7.15072V11.2914C168.228 13.5504 168.228 15.4073 168.344 16.396C168.415 17.0781 168.556 17.5955 169.259 17.6894C169.588 17.7372 170.081 17.7833 170.221 17.7833C170.432 17.7833 170.501 17.8542 170.501 17.925C170.501 18.042 170.408 18.1129 170.15 18.1129C168.86 18.1129 167.359 18.042 167.242 18.042C167.125 18.042 165.647 18.1129 164.944 18.1129C164.686 18.1129 164.569 18.0651 164.569 17.925C164.569 17.8542 164.617 17.7833 164.827 17.7833C164.968 17.7833 165.226 17.7603 165.437 17.7125C165.906 17.6186 166.046 17.0781 166.14 16.396C166.256 15.4073 166.256 13.5504 166.256 11.2914V7.15072H166.26ZM173.835 2.56352C173.319 1.24536 172.967 0.986667 172.146 0.752694C171.794 0.658775 171.395 0.658775 171.256 0.658775C171.116 0.658775 171.068 0.587924 171.068 0.494005C171.068 0.352303 171.303 0.329235 171.678 0.329235C172.803 0.329235 174.07 0.400086 174.351 0.400086C174.586 0.400086 175.594 0.329235 176.485 0.329235C176.907 0.329235 177.119 0.377018 177.119 0.494005C177.119 0.610992 177.048 0.658775 176.884 0.658775C176.626 0.658775 176.204 0.681843 175.992 0.775762C175.734 0.892748 175.686 1.08223 175.686 1.247C175.686 1.45956 175.898 2.09392 176.156 2.753L180.94 15.2442C182.3 12.0922 185.443 3.88333 185.959 2.18949C186.075 1.83688 186.171 1.50734 186.171 1.29644C186.171 1.1086 186.1 0.872976 185.865 0.755989C185.584 0.66207 185.233 0.66207 184.975 0.66207C184.833 0.66207 184.717 0.639003 184.717 0.520368C184.717 0.378666 184.858 0.33253 185.233 0.33253C186.171 0.33253 187.25 0.403381 187.531 0.403381C187.672 0.403381 188.681 0.33253 189.359 0.33253C189.617 0.33253 189.759 0.380313 189.759 0.4973C189.759 0.614287 189.665 0.66207 189.478 0.66207C189.313 0.66207 188.798 0.66207 188.352 0.943827C188.047 1.15473 187.695 1.55512 187.063 3.15504C186.805 3.81412 185.632 6.63663 184.436 9.53C183.005 12.9638 181.95 15.5046 181.41 16.6579C180.753 18.07 180.659 18.4457 180.424 18.4457C180.143 18.4457 180.025 18.1162 179.58 16.9875L173.833 2.56846L173.835 2.56352ZM192.105 11.1728C191.988 11.1728 191.917 11.2436 191.87 11.3606L190.462 15.5243C190.25 16.1126 190.133 16.6777 190.133 17.1012C190.133 17.5708 190.578 17.7833 190.978 17.7833H191.189C191.424 17.7833 191.495 17.8311 191.495 17.925C191.495 18.0667 191.283 18.1129 191.073 18.1129C190.509 18.1129 189.571 18.042 189.313 18.042C189.055 18.042 187.766 18.1129 186.663 18.1129C186.358 18.1129 186.218 18.0651 186.218 17.925C186.218 17.8311 186.335 17.7833 186.547 17.7833C186.711 17.7833 186.921 17.7603 187.11 17.7355C188.19 17.5938 188.658 16.7008 189.08 15.5243L194.404 0.915816C194.685 0.139749 194.779 -0.00195312 194.92 -0.00195312C195.062 -0.00195312 195.155 0.115034 195.436 0.844965C195.788 1.73802 199.469 11.4529 200.9 15.0284C201.745 17.1226 202.425 17.4983 202.918 17.64C203.269 17.757 203.645 17.7817 203.833 17.7817C203.974 17.7817 204.09 17.8048 204.09 17.9234C204.09 18.0651 203.879 18.1112 203.621 18.1112C203.269 18.1112 201.557 18.1112 199.939 18.0634C199.494 18.0404 199.236 18.0404 199.236 17.8987C199.236 17.8048 199.307 17.757 199.4 17.7339C199.542 17.6861 199.681 17.4752 199.542 17.0995L197.36 11.3128C197.312 11.2189 197.266 11.1711 197.148 11.1711H192.106L192.105 11.1728ZM196.842 10.3258C196.959 10.3258 196.959 10.255 196.936 10.1611L194.708 3.81083C194.592 3.45822 194.473 3.45822 194.357 3.81083L192.293 10.1611C192.246 10.2781 192.293 10.3258 192.364 10.3258H196.844H196.842Z" fill="white"/>
<path d="M38.1857 23.9872V31.8715H37.1704V23.9872H38.1857ZM39.9583 23.9872H40.9735V31.018H44.3331V31.8715H39.9599V23.9872H39.9583ZM47.9358 24.0811C48.4254 23.9988 49.0677 23.9296 49.8842 23.9296C50.8879 23.9296 51.6223 24.1635 52.0888 24.5853C52.5209 24.9594 52.7772 25.5328 52.7772 26.2347C52.7772 26.9366 52.5669 27.51 52.171 27.9186C51.6338 28.492 50.7598 28.7837 49.7675 28.7837C49.4636 28.7837 49.1843 28.7721 48.9511 28.7128V31.8715H47.9358V24.0795V24.0811ZM48.9511 27.8824C49.1728 27.9417 49.4521 27.9648 49.7905 27.9648C51.0161 27.9648 51.7619 27.3683 51.7619 26.2808C51.7619 25.1933 51.0276 24.7369 49.9072 24.7369C49.4636 24.7369 49.1252 24.7715 48.9511 24.8193V27.884V27.8824ZM60.8598 27.8478C60.8598 30.5615 59.2154 32.0016 57.2095 32.0016C55.2036 32.0016 53.6758 30.3869 53.6758 28.001C53.6758 25.4982 55.2266 23.8604 57.3261 23.8604C59.4257 23.8604 60.8598 25.5097 60.8598 27.8494V27.8478ZM54.7601 27.9763C54.7601 29.6603 55.6702 31.1696 57.2686 31.1696C58.8671 31.1696 59.7887 29.6833 59.7887 27.8939C59.7887 26.327 58.9722 24.6891 57.2801 24.6891C55.588 24.6891 54.7601 26.2446 54.7601 27.9763ZM62.1774 24.0927C62.6899 23.9872 63.4259 23.9296 64.1258 23.9296C65.21 23.9296 65.9099 24.1289 66.3994 24.5722C66.7953 24.9231 67.0171 25.4619 67.0171 26.0699C67.0171 27.1113 66.3633 27.8017 65.5353 28.0818V28.1164C66.1415 28.3273 66.5029 28.8891 66.6902 29.708C66.9465 30.8071 67.1338 31.5683 67.2964 31.8715H66.2466C66.1185 31.649 65.9427 30.9702 65.7209 29.9882C65.4877 28.9007 65.0671 28.4904 64.1471 28.4558H63.191V31.8715H62.1757V24.0927H62.1774ZM63.1926 27.6847H64.2309C65.3152 27.6847 66.0035 27.0882 66.0035 26.1869C66.0035 25.1686 65.2692 24.7237 64.1964 24.7122C63.7068 24.7122 63.3569 24.7583 63.1926 24.8061V27.6847ZM70.0514 24.8523H67.6611V23.9872H73.4816V24.8523H71.0782V31.8715H70.0514V24.8523ZM74.7515 29.3917L73.935 31.8715H72.8853L75.5565 23.9872H76.782L79.4647 31.8715H78.3805L77.541 29.3917H74.7531H74.7515ZM77.3291 28.5958L76.5586 26.327C76.3845 25.8129 76.2678 25.3449 76.1512 24.8885H76.1282C76.0115 25.3565 75.8834 25.8359 75.7323 26.3154L74.9618 28.5958H77.3291ZM80.618 23.9872H81.6333V31.018H84.9928V31.8715H80.6196V23.9872H80.618ZM90.194 28.1757H87.1383V31.018H90.5439V31.8715H86.1231V23.9872H90.3681V24.8407H87.1367V27.3321H90.1923V28.174L90.194 28.1757ZM94.3355 24.0927C94.9532 23.9988 95.6892 23.9296 96.4925 23.9296C97.9514 23.9296 98.988 24.269 99.6763 24.9116C100.376 25.5542 100.785 26.467 100.785 27.7423C100.785 29.0177 100.389 30.0821 99.6533 30.8071C98.919 31.5436 97.7049 31.9423 96.1771 31.9423C95.4543 31.9423 94.8481 31.9077 94.3339 31.8484V24.0927H94.3355ZM95.3508 31.0657C95.6071 31.1119 95.98 31.1251 96.3775 31.1251C98.5477 31.1251 99.7256 29.9091 99.7256 27.7786C99.7371 25.9183 98.6874 24.7369 96.5418 24.7369C96.0161 24.7369 95.6202 24.7831 95.3524 24.8424V31.0657H95.3508ZM106.174 28.1757H103.118V31.018H106.524V31.8715H102.103V23.9872H106.348V24.8407H103.116V27.3321H106.172V28.174L106.174 28.1757ZM107.841 23.9872H108.856V31.018H112.216V31.8715H107.843V23.9872H107.841ZM113.346 23.9872H114.361V31.018H117.721V31.8715H113.348V23.9872H113.346ZM120.123 29.3917L119.306 31.8715H118.257L120.928 23.9872H122.153L124.836 31.8715H123.752L122.912 29.3917H120.124H120.123ZM122.7 28.5958L121.93 26.327C121.756 25.8129 121.639 25.3449 121.523 24.8885H121.5C121.383 25.3565 121.255 25.8359 121.104 26.3154L120.333 28.5958H122.7ZM128.463 23.9872H129.479V31.018H132.838V31.8715H128.465V23.9872H128.463ZM138.039 28.1757H134.984V31.018H138.389V31.8715H133.968V23.9872H138.214V24.8407H134.982V27.3321H138.038V28.174L138.039 28.1757ZM145.69 31.5205C145.235 31.6836 144.336 31.9539 143.275 31.9539C142.086 31.9539 141.105 31.649 140.336 30.9125C139.659 30.2567 139.24 29.2038 139.24 27.9763C139.252 25.625 140.862 23.9048 143.497 23.9048C144.407 23.9048 145.118 24.1042 145.457 24.2673L145.212 25.0978C144.791 24.9099 144.267 24.7583 143.474 24.7583C141.562 24.7583 140.313 25.9513 140.313 27.9285C140.313 29.9058 141.514 31.1102 143.346 31.1102C144.011 31.1102 144.466 31.0163 144.699 30.8993V28.5481H143.101V27.7292H145.69V31.5189V31.5205ZM153.226 31.5205C152.771 31.6836 151.872 31.9539 150.811 31.9539C149.621 31.9539 148.641 31.649 147.872 30.9125C147.195 30.2567 146.776 29.2038 146.776 27.9763C146.787 25.625 148.397 23.9048 151.034 23.9048C151.944 23.9048 152.656 24.1042 152.994 24.2673L152.749 25.0978C152.329 24.9099 151.805 24.7583 151.011 24.7583C149.099 24.7583 147.85 25.9513 147.85 27.9285C147.85 29.9058 149.051 31.1102 150.883 31.1102C151.548 31.1102 152.003 31.0163 152.237 30.8993V28.5481H150.638V27.7292H153.227V31.5189L153.226 31.5205ZM158.847 28.1757H155.792V31.018H159.197V31.8715H154.776V23.9872H159.021V24.8407H155.79V27.3321H158.846V28.174L158.847 28.1757ZM164.295 31.8715L161.729 23.9872H162.825L164.05 27.8709C164.389 28.9353 164.679 29.8942 164.89 30.8186H164.913C165.134 29.9058 165.461 28.9122 165.811 27.8824L167.14 23.9872H168.225L165.414 31.8715H164.293H164.295ZM170.091 23.9872V31.8715H169.076V23.9872H170.091ZM177.848 31.5205C177.393 31.6836 176.494 31.9539 175.433 31.9539C174.244 31.9539 173.263 31.649 172.494 30.9125C171.817 30.2567 171.398 29.2038 171.398 27.9763C171.41 25.625 173.02 23.9048 175.657 23.9048C176.567 23.9048 177.278 24.1042 177.617 24.2673L177.372 25.0978C176.951 24.9099 176.427 24.7583 175.634 24.7583C173.721 24.7583 172.473 25.9513 172.473 27.9285C172.473 29.9058 173.674 31.1102 175.505 31.1102C176.171 31.1102 176.626 31.0163 176.859 30.8993V28.5481H175.261V27.7292H177.85V31.5189L177.848 31.5205ZM183.47 28.1757H180.414V31.018H183.82V31.8715H179.399V23.9872H183.644V24.8407H180.413V27.3321H183.468V28.174L183.47 28.1757ZM185.137 31.8715V23.9872H186.246L188.766 27.9763C189.35 28.9007 189.805 29.7311 190.178 30.5385L190.201 30.5269C190.107 29.4741 190.084 28.5151 190.084 27.2859V23.9872H191.04V31.8715H190.013L187.518 27.8709C186.969 26.9926 186.445 26.093 186.047 25.2378L186.013 25.2494C186.072 26.2446 186.095 27.192 186.095 28.5019V31.8715H185.139H185.137ZM194.306 24.8523H191.916V23.9872H197.736V24.8523H195.333V31.8715H194.306V24.8523ZM202.681 28.1757H199.625V31.018H203.031V31.8715H198.61V23.9872H202.855V24.8407H199.624V27.3321H202.679V28.174L202.681 28.1757Z" fill="white"/>
</g>
<defs>
<clipPath id="clip0_248_13368">
<rect width="204.089" height="32" fill="white"/>
</clipPath>
</defs>
</svg>
